# Blender v2.78 (sub 0) OBJ File: 'Carrot.blend'
# www.blender.org
mtllib Carrot.mtl
o Carrot_Cylinder.008
v -0.000000 0.081931 -0.015007
v -0.000000 1.061063 -0.062623
v 0.010611 0.081931 -0.010611
v 0.044281 1.061063 -0.044281
v 0.015007 0.081931 0.000000
v 0.062623 1.061063 0.000000
v 0.010611 0.081931 0.010611
v 0.044281 1.061063 0.044281
v -0.000000 0.081931 0.015007
v -0.000000 1.061063 0.062623
v -0.010611 0.081931 0.010611
v -0.044282 1.061063 0.044281
v -0.015007 0.081931 -0.000000
v -0.062623 1.061063 -0.000000
v -0.010611 0.081931 -0.010611
v -0.044282 1.061063 -0.044281
v 0.000000 0.648818 -0.141821
v 0.100282 0.648818 -0.100282
v 0.141821 0.648818 0.000000
v 0.100282 0.648818 0.100282
v -0.000000 0.648818 0.141821
v -0.100282 0.648818 0.100282
v -0.141821 0.648818 -0.000000
v -0.100282 0.648818 -0.100282
v 0.000000 0.834300 -0.166878
v 0.118000 0.834300 -0.118000
v 0.166878 0.834300 0.000000
v 0.118000 0.834300 0.118000
v -0.000000 0.834300 0.166878
v -0.118000 0.834300 0.118000
v -0.166878 0.834300 -0.000000
v -0.118000 0.834300 -0.118000
v 0.000000 0.959695 -0.167296
v 0.118296 0.959695 -0.118296
v 0.167296 0.959695 0.000000
v 0.118296 0.959695 0.118296
v -0.000000 0.959695 0.167296
v -0.118296 0.959695 0.118296
v -0.167296 0.959695 -0.000000
v -0.118296 0.959695 -0.118296
v 0.053893 0.332721 -0.053893
v 0.076216 0.332721 0.000000
v 0.053893 0.332721 0.053893
v -0.000000 0.332721 0.076216
v -0.053893 0.332721 0.053893
v -0.076216 0.332721 -0.000000
v -0.053893 0.332721 -0.053893
v 0.000000 0.332721 -0.076216
v 0.033106 0.207326 -0.033106
v 0.046820 0.207326 0.000000
v 0.033106 0.207326 0.033106
v -0.000000 0.207326 0.046820
v -0.033106 0.207326 0.033106
v -0.046820 0.207326 -0.000000
v -0.033106 0.207326 -0.033106
v -0.000000 0.207326 -0.046820
v 0.000000 0.479385 -0.109409
v 0.077364 0.479385 -0.077364
v 0.109409 0.479385 0.000000
v 0.077364 0.479385 0.077364
v -0.000000 0.479385 0.109409
v -0.077364 0.479385 0.077364
v -0.109409 0.479385 -0.000000
v -0.077364 0.479385 -0.077364
v -0.000000 1.042608 -0.138426
v 0.097882 1.042608 -0.097882
v 0.138426 1.042608 0.000000
v 0.097882 1.042608 0.097882
v -0.000000 1.042608 0.138426
v -0.097882 1.042608 0.097882
v -0.138426 1.042608 -0.000000
v -0.097882 1.042608 -0.097882
v -0.000000 1.061063 -0.062623
v 0.044281 1.061063 -0.044281
v 0.062623 1.061063 0.000000
v 0.044281 1.061063 0.044281
v -0.000000 1.061063 0.062623
v -0.044282 1.061063 0.044281
v -0.062623 1.061063 -0.000000
v -0.044282 1.061063 -0.044281
v -0.000000 1.302394 -0.115464
v 0.081645 1.302394 -0.081645
v 0.115464 1.302394 0.000000
v 0.081645 1.302394 0.081645
v 0.004993 1.271102 0.101962
v -0.066410 1.277386 0.075520
v -0.104759 1.294220 -0.017580
v -0.081645 1.302394 -0.081645
v 0.017216 1.061063 -0.041562
v 0.041562 1.061063 -0.017216
v 0.041562 1.061063 0.017216
v 0.017216 1.061063 0.041562
v -0.017216 1.061063 0.041562
v -0.041562 1.061063 0.017216
v -0.041562 1.061063 -0.017216
v -0.017216 1.061063 -0.041562
v 0.031742 1.302394 -0.076632
v 0.076632 1.302394 -0.031742
v 0.076632 1.302394 0.031742
v 0.031742 1.302394 0.076632
v -0.031742 1.302394 0.076632
v -0.088528 1.317831 0.039159
v -0.076632 1.302394 -0.031742
v -0.031742 1.302394 -0.076632
v -0.062856 1.179349 -0.010642
v -0.048828 1.181728 -0.048828
v -0.000000 1.181728 0.069053
v -0.048828 1.181728 0.048828
v 0.069053 1.181728 0.000000
v 0.048828 1.181728 0.048828
v -0.000000 1.181728 -0.069053
v 0.048828 1.181728 -0.048828
v 0.045830 1.181728 -0.018983
v 0.018983 1.181728 0.045830
v -0.045830 1.181728 0.018983
v -0.018983 1.181728 -0.045830
v 0.018983 1.181728 -0.045830
v 0.045830 1.181728 0.018983
v -0.018983 1.181728 0.045830
v -0.045830 1.181728 -0.018983
v 0.022816 1.414528 -0.204440
v 0.135400 1.447924 -0.165747
v 0.178153 1.418780 -0.045440
v 0.135400 1.380032 0.080672
v 0.000739 1.366370 0.126691
v -0.087338 1.366540 0.077048
v -0.132207 1.341743 -0.032992
v -0.076076 1.394941 -0.155516
v 0.057836 1.462252 -0.157274
v 0.127534 1.452936 -0.090158
v 0.128926 1.421283 0.005361
v 0.060091 1.423507 0.073106
v -0.037421 1.440390 0.075135
v -0.084672 1.390791 0.017136
v -0.075573 1.403203 -0.080845
v -0.030029 1.448263 -0.156489
v 0.087423 1.474280 -0.039913
v 0.002580 1.478125 -0.121442
v 0.001961 1.442593 0.034372
v -0.077337 1.475223 -0.041147
v 0.143999 1.713402 0.023176
v 0.113347 1.764777 -0.008674
v 0.092517 1.709927 0.067117
v 0.061864 1.761302 0.035268
v 0.203230 1.549019 -0.311052
v 0.124986 1.590582 -0.304749
v 0.221461 1.612015 -0.251147
v 0.186774 1.672449 -0.212878
v 0.090298 1.651017 -0.266481
v 0.359040 1.529116 -0.017802
v 0.330966 1.586651 -0.058178
v 0.330060 1.572988 0.036641
v 0.307194 1.621265 -0.005020
v 0.006732 1.640625 -0.031916
v 0.075549 1.648101 -0.095178
v 0.135961 1.615495 -0.036113
v 0.060282 1.593706 0.021016
v 0.026400 1.523751 -0.135031
v 0.105266 1.520172 -0.059780
v -0.052984 1.519412 -0.058872
v 0.017539 1.492180 0.011292
v 0.203651 1.524044 -0.100700
v 0.242997 1.478198 -0.058153
v 0.203894 1.513594 -0.005531
v 0.171709 1.552023 -0.048998
v 0.143278 1.589095 -0.118686
v 0.057039 1.566575 -0.172463
v 0.165284 1.500947 -0.222732
v 0.174168 1.541354 -0.158912
v 0.093527 1.528633 -0.214440
v 0.026125 1.420109 -0.256229
v 0.038676 1.493644 -0.243435
v -0.042288 1.443362 -0.233699
v -0.024637 1.508061 -0.224130
v -0.116324 1.470745 -0.256052
v -0.142494 1.529458 -0.216096
v -0.049215 1.504742 -0.237236
v -0.027455 1.553273 -0.218403
v -0.121147 1.586798 -0.187018
v -0.181108 1.367143 -0.063195
v -0.181611 1.456473 -0.017587
v -0.141533 1.441056 -0.111949
v -0.147319 1.496444 -0.076781
v -0.254694 1.414135 -0.091922
v -0.288517 1.461503 -0.045532
v -0.233091 1.436172 -0.162504
v -0.251615 1.509382 -0.126194
v -0.159267 1.471397 0.094986
v -0.104994 1.522122 0.116679
v -0.191704 1.517878 0.036076
v -0.107207 1.584724 0.081146
v -0.155527 1.585132 0.036729
v -0.241671 1.511605 0.157188
v -0.206457 1.552080 0.195865
v -0.274295 1.561938 0.121366
v -0.217830 1.611881 0.186780
v -0.256152 1.619368 0.146510
v -0.003345 1.416169 0.159971
v 0.035800 1.478599 0.144984
v -0.028203 1.472584 0.141058
v -0.001713 1.504389 0.124449
v -0.016227 1.406475 0.223620
v 0.020754 1.469765 0.240388
v -0.042448 1.465151 0.228894
v -0.016460 1.501382 0.229927
v 0.158368 1.423149 0.125089
v 0.168542 1.465668 0.093540
v 0.119666 1.461538 0.128927
v 0.155746 1.513022 0.080371
v 0.091667 1.491420 0.109470
v 0.194938 1.480989 0.210622
v 0.209675 1.508780 0.205694
v 0.177506 1.506095 0.220987
v 0.209960 1.538361 0.210661
v 0.167680 1.530734 0.217337
vn 0.0975 0.9670 -0.2354
vn 0.2354 0.9670 -0.0975
vn 0.2354 0.9670 0.0975
vn 0.0975 0.9670 0.2354
vn -0.0975 0.9670 0.2354
vn -0.2354 0.9670 0.0975
vn 0.0000 1.0000 -0.0000
vn -0.2354 0.9670 -0.0975
vn -0.0975 0.9670 -0.2354
vn 0.0000 -1.0000 0.0000
vn -0.3768 -0.1740 -0.9098
vn -0.9098 -0.1740 -0.3768
vn -0.9098 -0.1740 0.3768
vn -0.3768 -0.1740 0.9098
vn 0.3768 -0.1740 0.9098
vn 0.9098 -0.1740 0.3768
vn 0.9098 -0.1740 -0.3768
vn 0.3768 -0.1740 -0.9098
vn -0.3797 -0.1238 -0.9168
vn -0.9168 -0.1238 -0.3797
vn -0.9168 -0.1238 0.3797
vn -0.3797 -0.1238 0.9168
vn 0.3797 -0.1238 0.9168
vn 0.9168 -0.1238 0.3797
vn 0.9168 -0.1238 -0.3797
vn 0.3797 -0.1238 -0.9168
vn -0.3827 -0.0031 -0.9239
vn -0.9239 -0.0031 -0.3827
vn -0.9239 -0.0031 0.3827
vn -0.3827 -0.0031 0.9239
vn 0.3827 -0.0031 0.9239
vn 0.9239 -0.0031 0.3827
vn 0.9239 -0.0031 -0.3827
vn 0.3827 -0.0031 -0.9239
vn 0.3740 -0.2117 -0.9029
vn 0.9029 -0.2117 -0.3740
vn 0.9029 -0.2117 0.3740
vn 0.3740 -0.2117 0.9029
vn -0.3740 -0.2117 0.9029
vn -0.9029 -0.2117 0.3740
vn -0.9029 -0.2117 -0.3740
vn -0.3740 -0.2117 -0.9029
vn -0.3726 -0.2282 -0.8995
vn -0.8995 -0.2282 -0.3726
vn -0.8995 -0.2282 0.3726
vn -0.3726 -0.2282 0.8995
vn 0.3726 -0.2282 0.8995
vn 0.8995 -0.2282 0.3726
vn 0.8995 -0.2282 -0.3726
vn 0.3726 -0.2282 -0.8995
vn 0.3746 -0.2047 -0.9043
vn 0.9043 -0.2047 -0.3746
vn 0.9043 -0.2047 0.3746
vn 0.3746 -0.2047 0.9043
vn -0.3746 -0.2047 0.9043
vn -0.9043 -0.2047 0.3746
vn -0.9043 -0.2047 -0.3746
vn -0.3746 -0.2047 -0.9043
vn -0.3643 0.3062 -0.8795
vn -0.8795 0.3062 -0.3643
vn -0.8795 0.3062 0.3643
vn -0.3643 0.3062 0.8795
vn 0.3643 0.3062 0.8795
vn 0.8795 0.3062 0.3643
vn 0.8795 0.3062 -0.3643
vn 0.3643 0.3062 -0.8795
vn 0.4543 -0.4842 -0.7478
vn -0.3997 -0.1982 -0.8950
vn -0.7094 -0.2285 0.6668
vn 0.6149 -0.2365 0.7523
vn 0.7523 -0.2365 -0.6149
vn 0.0971 -0.2365 -0.9668
vn -0.9562 -0.2711 0.1105
vn -0.0971 -0.2365 0.9668
vn 0.9668 -0.2365 0.0971
vn 0.6149 -0.2365 -0.7523
vn 0.6325 -0.0337 -0.7738
vn 0.9944 -0.0337 0.0999
vn 0.7792 -0.2413 0.5784
vn 0.7738 -0.0337 0.6325
vn -0.0999 -0.0337 0.9944
vn -0.8524 -0.3096 0.4214
vn -0.7761 0.0088 0.6306
vn -0.9944 -0.0337 -0.0999
vn -0.7523 -0.2365 -0.6149
vn -0.7738 -0.0337 -0.6325
vn 0.0999 -0.0337 -0.9944
vn -0.0971 -0.2365 -0.9668
vn -0.0999 -0.0337 -0.9944
vn 0.7738 -0.0337 -0.6325
vn 0.9668 -0.2365 -0.0971
vn 0.9944 -0.0337 -0.0999
vn 0.6325 -0.0337 0.7738
vn 0.1209 -0.2391 0.9634
vn 0.0999 -0.0337 0.9944
vn -0.7738 -0.0337 0.6325
vn -0.9668 -0.2365 0.0971
vn -0.9944 -0.0337 0.0999
vn -0.5541 -0.0536 -0.8307
vn -0.4609 0.7474 0.4784
vn -0.0806 0.0558 0.9952
vn 0.8407 -0.4867 -0.2375
vn -0.7751 -0.0952 0.6246
vn 0.7460 -0.1467 0.6495
vn -0.9862 -0.0860 0.1415
vn 0.0085 0.0009 1.0000
vn -0.2811 -0.4244 -0.8607
vn -0.8565 -0.0074 0.5161
vn 0.3223 -0.5199 -0.7911
vn 0.8176 -0.4033 -0.4109
vn -0.9974 0.0598 0.0402
vn 0.9525 -0.2842 0.1091
vn -0.7377 -0.3192 -0.5949
vn -0.1433 -0.4406 -0.8862
vn 0.6781 -0.1096 0.7267
vn 0.0438 0.6781 0.7336
vn 0.4477 -0.3634 -0.8170
vn -0.5652 0.5928 -0.5737
vn 0.9426 -0.2792 -0.1831
vn -0.6069 -0.1370 0.7829
vn -0.9038 -0.4254 0.0462
vn 0.5824 0.7035 -0.4072
vn -0.7941 -0.5886 -0.1514
vn 0.4674 0.6502 0.5990
vn 0.7845 0.2251 -0.5779
vn -0.7372 -0.0503 0.6738
vn 0.6109 -0.4391 0.6588
vn 0.2707 0.6211 -0.7355
vn 0.8972 -0.4153 0.1505
vn 0.8432 0.1333 0.5208
vn -0.3855 -0.7112 -0.5878
vn -0.8494 -0.2253 -0.4772
vn 0.8735 0.4807 0.0776
vn -0.4705 0.4478 0.7603
vn -0.2049 0.7887 -0.5796
vn 0.1264 -0.7571 0.6409
vn 0.6416 -0.3547 0.6801
vn -0.6404 0.1713 0.7487
vn 0.6881 -0.0406 -0.7245
vn -0.6303 0.4513 -0.6317
vn -0.6979 0.1286 -0.7046
vn 0.5871 -0.5000 -0.6367
vn -0.4835 0.5141 0.7085
vn 0.6082 0.1387 0.7816
vn 0.5947 -0.4437 0.6705
vn -0.5600 0.5182 -0.6465
vn -0.3906 0.4595 0.7977
vn 0.3312 -0.5002 -0.8000
vn -0.6798 -0.1107 -0.7250
vn -0.2526 -0.5925 -0.7649
vn 0.7985 0.0336 0.6010
vn 0.9139 -0.3880 0.1197
vn -0.5175 0.6421 0.5657
vn -0.2421 0.2063 -0.9481
vn -0.4138 -0.9101 0.0239
vn -0.8991 0.3611 0.2475
vn 0.3347 0.9173 0.2157
vn -0.0895 0.4798 -0.8728
vn -0.9402 -0.0376 0.3385
vn 0.8495 -0.2833 -0.4451
vn 0.5446 -0.5824 -0.6035
vn 0.4339 0.7732 0.4625
vn -0.1058 0.8654 0.4898
vn 0.5434 0.4490 -0.7093
vn 0.0793 -0.6158 -0.7839
vn -0.5514 -0.3397 0.7619
vn -0.9071 -0.1163 -0.4046
vn 0.0838 -0.7971 -0.5980
vn 0.4097 0.5011 -0.7623
vn -0.3915 -0.5794 0.7149
vn 0.6700 0.3188 0.6704
vn 0.0977 -0.2352 0.9670
vn 0.5954 0.6653 -0.4503
vn -0.5884 -0.1341 -0.7973
vn 0.7157 0.3202 0.6206
vn -0.7379 -0.0334 0.6740
vn 0.2531 -0.6943 0.6737
vn 0.1846 0.9779 -0.0977
vn -0.5824 0.4001 -0.7076
vn -0.6317 -0.7158 -0.2977
vn 0.5688 0.8118 0.1322
vn -0.9143 -0.2877 0.2851
vn 0.7754 -0.3300 0.5384
vn -0.6600 0.6536 -0.3703
vn -0.1739 -0.0657 0.9826
vn 0.8514 -0.5168 0.0893
vn -0.7984 0.5958 -0.0876
vn -0.8852 -0.4172 -0.2057
vn -0.5160 -0.5942 0.6169
vn 0.8475 0.1648 -0.5045
vn -0.4000 -0.5229 0.7527
vn 0.9202 -0.3229 -0.2213
vn -0.3912 0.9155 -0.0939
vn 0.3279 -0.0036 0.9447
vn -0.2940 0.9508 -0.0973
vn 0.9043 -0.3991 -0.1517
vn -0.7482 -0.2605 0.6102
vn 0.9146 0.1072 -0.3899
usemtl Carrot
s off
f 65//1 2//1 4//1 66//1
f 66//2 4//2 6//2 67//2
f 67//3 6//3 8//3 68//3
f 68//4 8//4 10//4 69//4
f 69//5 10//5 12//5 70//5
f 70//6 12//6 14//6 71//6
f 4//7 2//7 16//7 14//7 12//7 10//7 8//7 6//7
f 71//8 14//8 16//8 72//8
f 72//9 16//9 2//9 65//9
f 1//10 3//10 5//10 7//10 9//10 11//10 13//10 15//10
f 64//11 24//11 17//11 57//11
f 63//12 23//12 24//12 64//12
f 62//13 22//13 23//13 63//13
f 61//14 21//14 22//14 62//14
f 60//15 20//15 21//15 61//15
f 59//16 19//16 20//16 60//16
f 58//17 18//17 19//17 59//17
f 57//18 17//18 18//18 58//18
f 24//19 32//19 25//19 17//19
f 23//20 31//20 32//20 24//20
f 22//21 30//21 31//21 23//21
f 21//22 29//22 30//22 22//22
f 20//23 28//23 29//23 21//23
f 19//24 27//24 28//24 20//24
f 18//25 26//25 27//25 19//25
f 17//26 25//26 26//26 18//26
f 32//27 40//27 33//27 25//27
f 31//28 39//28 40//28 32//28
f 30//29 38//29 39//29 31//29
f 29//30 37//30 38//30 30//30
f 28//31 36//31 37//31 29//31
f 27//32 35//32 36//32 28//32
f 26//33 34//33 35//33 27//33
f 25//34 33//34 34//34 26//34
f 56//35 48//35 41//35 49//35
f 49//36 41//36 42//36 50//36
f 50//37 42//37 43//37 51//37
f 51//38 43//38 44//38 52//38
f 52//39 44//39 45//39 53//39
f 53//40 45//40 46//40 54//40
f 54//41 46//41 47//41 55//41
f 55//42 47//42 48//42 56//42
f 15//43 55//43 56//43 1//43
f 13//44 54//44 55//44 15//44
f 11//45 53//45 54//45 13//45
f 9//46 52//46 53//46 11//46
f 7//47 51//47 52//47 9//47
f 5//48 50//48 51//48 7//48
f 3//49 49//49 50//49 5//49
f 1//50 56//50 49//50 3//50
f 48//51 57//51 58//51 41//51
f 41//52 58//52 59//52 42//52
f 42//53 59//53 60//53 43//53
f 43//54 60//54 61//54 44//54
f 44//55 61//55 62//55 45//55
f 45//56 62//56 63//56 46//56
f 46//57 63//57 64//57 47//57
f 47//58 64//58 57//58 48//58
f 40//59 72//59 65//59 33//59
f 39//60 71//60 72//60 40//60
f 38//61 70//61 71//61 39//61
f 37//62 69//62 70//62 38//62
f 36//63 68//63 69//63 37//63
f 35//64 67//64 68//64 36//64
f 34//65 66//65 67//65 35//65
f 33//66 65//66 66//66 34//66
x